<?xml version="1.0" encoding="UTF-8" standalone="no"?>
<svg
   xmlns:dc="http://purl.org/dc/elements/1.1/"
   xmlns:cc="http://creativecommons.org/ns#"
   xmlns:rdf="http://www.w3.org/1999/02/22-rdf-syntax-ns#"
   xmlns:svg="http://www.w3.org/2000/svg"
   xmlns="http://www.w3.org/2000/svg"
   xmlns:xlink="http://www.w3.org/1999/xlink"
   xmlns:sodipodi="http://sodipodi.sourceforge.net/DTD/sodipodi-0.dtd"
   xmlns:inkscape="http://www.inkscape.org/namespaces/inkscape"
   id="svg121339"
   viewBox="0 0 560 195.49542"
   height="195.49542"
   width="560"
   version="1.1"
   sodipodi:docname="rcodi-logo.svg"
   inkscape:version="0.92.3 (2405546, 2018-03-11)">
  <sodipodi:namedview
     pagecolor="#ffffff"
     bordercolor="#666666"
     borderopacity="1"
     objecttolerance="10"
     gridtolerance="10"
     guidetolerance="10"
     inkscape:pageopacity="0"
     inkscape:pageshadow="2"
     inkscape:window-width="1920"
     inkscape:window-height="1029"
     id="namedview52"
     showgrid="false"
     fit-margin-top="20"
     fit-margin-left="20"
     fit-margin-right="20"
     fit-margin-bottom="20"
     inkscape:zoom="0.30729167"
     inkscape:cx="-237.42373"
     inkscape:cy="97.747714"
     inkscape:window-x="1920"
     inkscape:window-y="0"
     inkscape:window-maximized="1"
     inkscape:current-layer="svg121339" />
  <metadata
     id="metadata121345">
    <rdf:rdf>
      <cc:work
         rdf:about="">
        <dc:format>image/svg+xml</dc:format>
        <dc:type
           rdf:resource="http://purl.org/dc/dcmitype/StillImage" />
      </cc:work>
    </rdf:rdf>
    <rdf:RDF>
      <cc:Work
         rdf:about="">
        <dc:format>image/svg+xml</dc:format>
        <dc:type
           rdf:resource="http://purl.org/dc/dcmitype/StillImage" />
        <dc:title></dc:title>
      </cc:Work>
    </rdf:RDF>
  </metadata>
  <defs
     id="defs121343" />
  <g
     id="logo-group"
     transform="translate(-232,-286.25229)">
    <image
       sodipodi:absref="/glacier/Dropbox (RCODI)/Clients/open-digital/media/logo/../nounpreview/1146697.png"
       xlink:href="../nounpreview/1146697.png"
       style="display:none"
       y="0"
       x="412"
       height="200"
       width="200"
       id="icon" />
    <g
       id="title"
       style="font-style:normal;font-weight:300;font-size:72px;line-height:1;font-family:'Montserrat Light Alt1';font-variant-ligatures:none;text-align:center;text-anchor:middle"
       aria-label="RCODI">
      <path
         id="path121347"
         style="font-style:normal;font-weight:300;font-size:72px;line-height:1;font-family:'Montserrat Light Alt1';font-variant-ligatures:none;text-align:center;text-anchor:middle;fill:#1d1d1d"
         d="m 425.64106,-17.64 c 3.744,-1.08 6.696,-2.952 8.712,-5.688 2.016,-2.736 3.096,-6.048 3.096,-10.08 0,-5.256 -1.8,-9.432 -5.4,-12.456 -3.6,-3.024 -8.568,-4.536 -14.904,-4.536 h -18.072 v 3.312 h 18.072 c 5.328,0 9.432,1.224 12.312,3.6 2.808,2.376 4.248,5.76 4.248,10.08 0,4.392 -1.44,7.776 -4.248,10.152 -2.88,2.376 -6.984,3.528 -12.312,3.528 h -18.072 V 0 h 3.672 v -16.488 h 14.4 c 1.44,0 3.096,-0.072 4.896,-0.36 L 434.06506,0 h 4.176 z"
         transform="matrix(2.3023163,0,0,2.3023163,-666.7924,423.11786)"
         inkscape:connector-curvature="0" />
      <path
         id="path121349"
         style="font-style:normal;font-weight:300;font-size:72px;line-height:1;font-family:'Montserrat Light Alt1';font-variant-ligatures:none;text-align:center;text-anchor:middle;fill:#1d1d1d"
         d="m 458.88369,-2.952 c 3.96,2.232 8.424,3.312 13.392,3.312 3.6,0 6.912,-0.576 10.008,-1.8 3.096,-1.152 5.76,-2.952 7.92,-5.256 l -2.304,-2.376 c -4.104,4.032 -9.288,6.048 -15.48,6.048 -4.248,0 -8.064,-0.936 -11.52,-2.88 -3.456,-1.872 -6.192,-4.536 -8.136,-7.92 -2.016,-3.384 -2.952,-7.2 -2.952,-11.376 0,-4.176 0.936,-7.92 2.952,-11.304 1.944,-3.384 4.68,-6.048 8.136,-7.992 3.456,-1.872 7.272,-2.88 11.52,-2.88 6.264,0 11.448,2.016 15.48,5.976 l 2.304,-2.376 c -2.16,-2.304 -4.824,-4.032 -7.848,-5.184 -3.096,-1.152 -6.48,-1.8 -10.08,-1.8 -4.968,0 -9.432,1.152 -13.392,3.312 -3.96,2.232 -7.056,5.256 -9.36,9.144 -2.304,3.888 -3.384,8.28 -3.384,13.104 0,4.896 1.08,9.216 3.384,13.104 2.304,3.888 5.4,6.984 9.36,9.144 z"
         transform="matrix(2.3023163,0,0,2.3023163,-666.7924,423.11786)"
         inkscape:connector-curvature="0" />
      <path
         id="path121351"
         style="font-style:normal;font-weight:300;font-size:72px;line-height:1;font-family:'Montserrat Light Alt1';font-variant-ligatures:none;text-align:center;text-anchor:middle;fill:#1d1d1d"
         d="m 509.44006,-2.952 c 3.96,2.232 8.424,3.312 13.392,3.312 4.896,0 9.36,-1.08 13.392,-3.312 3.96,-2.16 7.056,-5.256 9.36,-9.144 2.304,-3.888 3.456,-8.208 3.456,-13.104 0,-4.824 -1.152,-9.216 -3.456,-13.104 -2.304,-3.888 -5.4,-6.912 -9.36,-9.144 -4.032,-2.16 -8.496,-3.312 -13.392,-3.312 -4.968,0 -9.432,1.152 -13.392,3.384 -4.032,2.232 -7.128,5.256 -9.432,9.144 -2.304,3.888 -3.384,8.28 -3.384,13.032 0,4.824 1.08,9.144 3.384,13.032 2.304,3.888 5.4,6.984 9.432,9.216 z m 24.84,-2.952 c -3.456,1.944 -7.272,2.88 -11.448,2.88 -4.248,0 -8.064,-0.936 -11.52,-2.88 -3.456,-1.872 -6.12,-4.536 -8.064,-7.92 -2.016,-3.384 -2.952,-7.2 -2.952,-11.376 0,-4.176 0.936,-7.92 2.952,-11.304 1.944,-3.384 4.608,-6.048 8.064,-7.992 3.456,-1.872 7.272,-2.88 11.52,-2.88 4.176,0 7.992,1.008 11.448,2.88 3.384,1.944 6.048,4.608 8.064,7.992 1.944,3.384 2.952,7.128 2.952,11.304 0,4.176 -1.008,7.992 -2.952,11.376 -2.016,3.384 -4.68,6.048 -8.064,7.92 z"
         transform="matrix(2.3023163,0,0,2.3023163,-666.7924,423.11786)"
         inkscape:connector-curvature="0" />
      <path
         id="path121353"
         style="font-style:normal;font-weight:300;font-size:72px;line-height:1;font-family:'Montserrat Light Alt1';font-variant-ligatures:none;text-align:center;text-anchor:middle;fill:#1d1d1d"
         d="m 605.12019,-38.16 c -2.304,-3.816 -5.472,-6.768 -9.504,-9 -4.032,-2.16 -8.712,-3.24 -13.896,-3.24 h -19.944 v 3.312 h 19.656 c 4.608,0 8.712,0.936 12.312,2.808 3.528,1.872 6.264,4.464 8.208,7.704 1.872,3.312 2.88,7.128 2.88,11.376 0,4.32 -1.008,8.064 -2.88,11.376 -1.944,3.312 -4.68,5.904 -8.208,7.776 -3.6,1.872 -7.704,2.736 -12.312,2.736 h -15.984 V -25.2 h -3.672 V 0 h 19.944 c 5.184,0 9.864,-1.08 13.896,-3.24 4.032,-2.16 7.2,-5.112 9.504,-8.928 2.232,-3.816 3.384,-8.136 3.384,-13.032 0,-4.824 -1.152,-9.144 -3.384,-12.96 z"
         transform="matrix(2.3023163,0,0,2.3023163,-666.7924,423.11786)"
         inkscape:connector-curvature="0" />
      <path
         id="path121355"
         style="font-style:normal;font-weight:300;font-size:72px;line-height:1;font-family:'Montserrat Light Alt1';font-variant-ligatures:none;text-align:center;text-anchor:middle;fill:#1d1d1d"
         d="M 621.26056,-50.4 V 0 h 3.672 v -50.4 z"
         transform="matrix(2.3023163,0,0,2.3023163,-666.7924,423.11786)"
         inkscape:connector-curvature="0" />
    </g>
    <g
       id="tagline"
       style="font-style:normal;font-weight:400;font-size:32px;line-height:1;font-family:Montserrat;font-variant-ligatures:none;text-align:center;text-anchor:middle"
       aria-label="Research Center for Open Digital Innovation">
      <path
         id="path121358"
         style="font-style:normal;font-weight:400;font-size:32px;line-height:1;font-family:Montserrat;font-variant-ligatures:none;text-align:center;text-anchor:middle;fill:#1d1d1d"
         d="m 182.6015,0 -4.448,-7.04 q -0.768,0.064 -1.248,0.064 h -5.696 V 0 h -3.072 v -22.4 h 8.768 q 4.256,0 6.56,1.984 2.336,1.952 2.336,5.568 0,2.72 -1.28,4.576 -1.248,1.856 -3.616,2.688 L 186.1215,0 Z m -5.696,-9.76 q 2.88,0 4.416,-1.248 1.536,-1.28 1.536,-3.744 0,-2.4 -1.536,-3.616 -1.536,-1.248 -4.416,-1.248 h -5.696 v 9.856 z"
         transform="matrix(0.59527182,0,0,0.59527182,151.91248,457.99512)"
         inkscape:connector-curvature="0" />
      <path
         id="path121360"
         style="font-style:normal;font-weight:400;font-size:32px;line-height:1;font-family:Montserrat;font-variant-ligatures:none;text-align:center;text-anchor:middle;fill:#1d1d1d"
         d="m 197.7585,-17.024 q 3.936,0 5.952,2.336 2.016,2.304 2.016,6.432 0,0.64 -0.032,0.96 h -13.376 q 0.352,2.272 1.888,3.616 1.568,1.344 3.84,1.344 1.504,0 2.784,-0.544 1.312,-0.544 2.272,-1.536 l 1.632,1.696 q -1.248,1.344 -3.008,2.08 -1.76,0.736 -3.904,0.736 -2.496,0 -4.448,-1.056 -1.92,-1.088 -3.008,-3.04 -1.056,-1.952 -1.056,-4.448 0,-2.496 1.056,-4.416 1.088,-1.952 3.008,-3.04 1.92,-1.12 4.384,-1.12 z m 5.28,7.424 q -0.128,-2.304 -1.536,-3.616 -1.408,-1.344 -3.712,-1.344 -2.24,0 -3.744,1.344 -1.472,1.344 -1.76,3.616 z"
         transform="matrix(0.59527182,0,0,0.59527182,154.88884,457.99512)"
         inkscape:connector-curvature="0" />
      <path
         id="path121362"
         style="font-style:normal;font-weight:400;font-size:32px;line-height:1;font-family:Montserrat;font-variant-ligatures:none;text-align:center;text-anchor:middle;fill:#1d1d1d"
         d="m 219.035,-13.184 q -1.056,-0.64 -2.336,-1.024 -1.248,-0.384 -2.4,-0.384 -1.344,0 -2.176,0.512 -0.8,0.48 -0.8,1.504 0,1.024 0.896,1.568 0.928,0.512 2.784,1.056 1.76,0.512 2.88,1.024 1.12,0.512 1.888,1.504 0.8,0.992 0.8,2.624 0,2.4 -1.824,3.648 -1.792,1.248 -4.48,1.248 -1.888,0 -3.68,-0.608 -1.76,-0.608 -2.976,-1.728 l 1.12,-2.176 q 1.056,0.96 2.592,1.536 1.568,0.576 3.04,0.576 1.472,0 2.368,-0.544 0.896,-0.544 0.896,-1.664 0,-1.152 -0.96,-1.728 -0.928,-0.576 -2.848,-1.152 -1.696,-0.48 -2.784,-0.96 -1.056,-0.512 -1.824,-1.472 -0.736,-0.96 -0.736,-2.496 0,-2.368 1.728,-3.552 1.728,-1.184 4.32,-1.184 1.536,0 3.008,0.448 1.504,0.416 2.592,1.152 z"
         transform="matrix(0.59527182,0,0,0.59527182,157.8652,457.99512)"
         inkscape:connector-curvature="0" />
      <path
         id="path121364"
         style="font-style:normal;font-weight:400;font-size:32px;line-height:1;font-family:Montserrat;font-variant-ligatures:none;text-align:center;text-anchor:middle;fill:#1d1d1d"
         d="m 231.321,-17.024 q 3.936,0 5.952,2.336 2.016,2.304 2.016,6.432 0,0.64 -0.032,0.96 h -13.376 q 0.352,2.272 1.888,3.616 1.568,1.344 3.84,1.344 1.504,0 2.784,-0.544 1.312,-0.544 2.272,-1.536 l 1.632,1.696 q -1.248,1.344 -3.008,2.08 -1.76,0.736 -3.904,0.736 -2.496,0 -4.448,-1.056 -1.92,-1.088 -3.008,-3.04 -1.056,-1.952 -1.056,-4.448 0,-2.496 1.056,-4.416 1.088,-1.952 3.008,-3.04 1.92,-1.12 4.384,-1.12 z m 5.28,7.424 q -0.128,-2.304 -1.536,-3.616 -1.408,-1.344 -3.712,-1.344 -2.24,0 -3.744,1.344 -1.472,1.344 -1.76,3.616 z"
         transform="matrix(0.59527182,0,0,0.59527182,160.84156,457.99512)"
         inkscape:connector-curvature="0" />
      <path
         id="path121366"
         style="font-style:normal;font-weight:400;font-size:32px;line-height:1;font-family:Montserrat;font-variant-ligatures:none;text-align:center;text-anchor:middle;fill:#1d1d1d"
         d="m 253.6855,0 v -2.368 q -1.888,2.496 -5.92,2.496 -1.76,0 -3.104,-0.672 -1.312,-0.672 -2.048,-1.856 -0.704,-1.184 -0.704,-2.656 0,-2.272 1.664,-3.584 1.696,-1.344 4.704,-1.376 h 5.376 v -0.8 q 0,-1.792 -1.12,-2.752 -1.088,-0.992 -3.2,-0.992 -2.56,0 -5.216,1.824 l -1.248,-2.048 q 1.824,-1.184 3.36,-1.696 1.568,-0.544 3.712,-0.544 3.168,0 4.896,1.568 1.728,1.536 1.76,4.32 L 256.6295,0 Z m -5.312,-2.336 q 2.08,0 3.52,-0.992 1.472,-1.024 1.76,-2.688 v -1.696 h -4.96 q -2.016,0 -3.008,0.608 -0.96,0.608 -0.96,1.92 0,1.312 0.992,2.08 0.992,0.768 2.656,0.768 z"
         transform="matrix(0.59527182,0,0,0.59527182,163.81792,457.99512)"
         inkscape:connector-curvature="0" />
      <path
         id="path121368"
         style="font-style:normal;font-weight:400;font-size:32px;line-height:1;font-family:Montserrat;font-variant-ligatures:none;text-align:center;text-anchor:middle;fill:#1d1d1d"
         d="m 264.888,-13.28 q 0.832,-1.824 2.368,-2.752 1.536,-0.96 3.648,-0.992 v 2.88 q -2.592,-0.096 -4.192,1.344 -1.6,1.44 -1.824,3.872 V 0 h -2.976 v -16.928 h 2.976 z"
         transform="matrix(0.59527182,0,0,0.59527182,166.79428,457.99512)"
         inkscape:connector-curvature="0" />
      <path
         id="path121370"
         style="font-style:normal;font-weight:400;font-size:32px;line-height:1;font-family:Montserrat;font-variant-ligatures:none;text-align:center;text-anchor:middle;fill:#1d1d1d"
         d="m 286.034,-12.416 q -2.016,-1.952 -4.832,-1.952 -1.664,0 -2.976,0.736 -1.28,0.736 -2.016,2.08 -0.736,1.344 -0.736,3.104 0,1.76 0.704,3.104 0.736,1.344 1.984,2.112 1.28,0.736 2.912,0.736 1.632,0 2.944,-0.544 1.312,-0.544 2.176,-1.568 l 1.696,1.728 q -1.152,1.44 -2.944,2.208 -1.76,0.768 -4,0.768 -2.464,0 -4.384,-1.088 -1.92,-1.088 -3.008,-3.008 -1.056,-1.952 -1.056,-4.448 0,-2.496 1.056,-4.448 1.088,-1.952 3.008,-3.04 1.92,-1.088 4.384,-1.088 2.144,0 3.84,0.672 1.728,0.64 2.88,1.888 z"
         transform="matrix(0.59527182,0,0,0.59527182,169.77064,457.99512)"
         inkscape:connector-curvature="0" />
      <path
         id="path121372"
         style="font-style:normal;font-weight:400;font-size:32px;line-height:1;font-family:Montserrat;font-variant-ligatures:none;text-align:center;text-anchor:middle;fill:#1d1d1d"
         d="m 301.762,-17.024 q 2.976,0 4.672,1.76 1.696,1.728 1.696,4.8 V 0 h -2.976 v -9.664 q 0,-2.144 -1.216,-3.328 -1.184,-1.216 -3.296,-1.216 -2.464,0.032 -3.904,1.664 -1.44,1.632 -1.44,4.224 V 0 h -2.976 v -23.744 h 2.976 v 10.464 q 1.696,-3.68 6.464,-3.744 z"
         transform="matrix(0.59527182,0,0,0.59527182,172.747,457.99512)"
         inkscape:connector-curvature="0" />
      <path
         id="path121374"
         style="font-style:normal;font-weight:400;font-size:32px;line-height:1;font-family:Montserrat;font-variant-ligatures:none;text-align:center;text-anchor:middle;fill:#1d1d1d"
         d="m 338.299,-17.024 q -1.28,-1.344 -2.976,-2.08 -1.696,-0.768 -3.488,-0.768 -2.368,0 -4.352,1.152 -1.984,1.152 -3.136,3.136 -1.152,1.952 -1.152,4.32 0,2.336 1.152,4.32 1.152,1.984 3.136,3.136 1.984,1.152 4.352,1.152 1.76,0 3.456,-0.704 1.696,-0.736 3.008,-1.984 l 1.856,2.016 q -1.696,1.664 -3.936,2.624 -2.24,0.928 -4.544,0.928 -3.2,0 -5.856,-1.504 -2.656,-1.536 -4.192,-4.16 -1.536,-2.624 -1.536,-5.792 0,-3.136 1.536,-5.728 1.568,-2.624 4.256,-4.128 2.688,-1.504 5.92,-1.504 2.336,0 4.512,0.896 2.208,0.864 3.808,2.464 z"
         transform="matrix(0.59527182,0,0,0.59527182,175.72336,457.99512)"
         inkscape:connector-curvature="0" />
      <path
         id="path121376"
         style="font-style:normal;font-weight:400;font-size:32px;line-height:1;font-family:Montserrat;font-variant-ligatures:none;text-align:center;text-anchor:middle;fill:#1d1d1d"
         d="m 350.446,-17.024 q 3.936,0 5.952,2.336 2.016,2.304 2.016,6.432 0,0.64 -0.032,0.96 h -13.376 q 0.352,2.272 1.888,3.616 1.568,1.344 3.84,1.344 1.504,0 2.784,-0.544 1.312,-0.544 2.272,-1.536 l 1.632,1.696 q -1.248,1.344 -3.008,2.08 -1.76,0.736 -3.904,0.736 -2.496,0 -4.448,-1.056 -1.92,-1.088 -3.008,-3.04 -1.056,-1.952 -1.056,-4.448 0,-2.496 1.056,-4.416 1.088,-1.952 3.008,-3.04 1.92,-1.12 4.384,-1.12 z m 5.28,7.424 q -0.128,-2.304 -1.536,-3.616 -1.408,-1.344 -3.712,-1.344 -2.24,0 -3.744,1.344 -1.472,1.344 -1.76,3.616 z"
         transform="matrix(0.59527182,0,0,0.59527182,178.69972,457.99512)"
         inkscape:connector-curvature="0" />
      <path
         id="path121378"
         style="font-style:normal;font-weight:400;font-size:32px;line-height:1;font-family:Montserrat;font-variant-ligatures:none;text-align:center;text-anchor:middle;fill:#1d1d1d"
         d="m 371.8825,-17.024 q 2.976,0 4.672,1.76 1.696,1.728 1.696,4.8 V 0 h -2.976 v -9.664 q 0,-2.144 -1.216,-3.328 -1.184,-1.216 -3.296,-1.216 -2.272,0.032 -3.712,1.472 -1.408,1.408 -1.6,3.68 V 0 h -2.976 v -16.928 h 2.976 v 3.584 q 1.696,-3.616 6.432,-3.68 z"
         transform="matrix(0.59527182,0,0,0.59527182,181.67607,457.99512)"
         inkscape:connector-curvature="0" />
      <path
         id="path121380"
         style="font-style:normal;font-weight:400;font-size:32px;line-height:1;font-family:Montserrat;font-variant-ligatures:none;text-align:center;text-anchor:middle;fill:#1d1d1d"
         d="m 392.625,-1.12 q -1.952,1.248 -3.968,1.248 -2.016,0 -3.264,-1.184 -1.248,-1.216 -1.248,-3.648 v -9.376 h -2.4 v -2.272 h 2.4 v -4.544 h 3.008 v 4.544 h 5.184 v 2.272 h -5.184 v 8.832 q 0,1.408 0.512,2.016 0.512,0.608 1.536,0.608 1.216,0 2.624,-0.8 z"
         transform="matrix(0.59527182,0,0,0.59527182,184.65243,457.99512)"
         inkscape:connector-curvature="0" />
      <path
         id="path121382"
         style="font-style:normal;font-weight:400;font-size:32px;line-height:1;font-family:Montserrat;font-variant-ligatures:none;text-align:center;text-anchor:middle;fill:#1d1d1d"
         d="m 402.7585,-17.024 q 3.936,0 5.952,2.336 2.016,2.304 2.016,6.432 0,0.64 -0.032,0.96 h -13.376 q 0.352,2.272 1.888,3.616 1.568,1.344 3.84,1.344 1.504,0 2.784,-0.544 1.312,-0.544 2.272,-1.536 l 1.632,1.696 q -1.248,1.344 -3.008,2.08 -1.76,0.736 -3.904,0.736 -2.496,0 -4.448,-1.056 -1.92,-1.088 -3.008,-3.04 -1.056,-1.952 -1.056,-4.448 0,-2.496 1.056,-4.416 1.088,-1.952 3.008,-3.04 1.92,-1.12 4.384,-1.12 z m 5.28,7.424 q -0.128,-2.304 -1.536,-3.616 -1.408,-1.344 -3.712,-1.344 -2.24,0 -3.744,1.344 -1.472,1.344 -1.76,3.616 z"
         transform="matrix(0.59527182,0,0,0.59527182,187.62879,457.99512)"
         inkscape:connector-curvature="0" />
      <path
         id="path121384"
         style="font-style:normal;font-weight:400;font-size:32px;line-height:1;font-family:Montserrat;font-variant-ligatures:none;text-align:center;text-anchor:middle;fill:#1d1d1d"
         d="m 417.763,-13.28 q 0.832,-1.824 2.368,-2.752 1.536,-0.96 3.648,-0.992 v 2.88 q -2.592,-0.096 -4.192,1.344 -1.6,1.44 -1.824,3.872 V 0 h -2.976 v -16.928 h 2.976 z"
         transform="matrix(0.59527182,0,0,0.59527182,190.60515,457.99512)"
         inkscape:connector-curvature="0" />
      <path
         id="path121386"
         style="font-style:normal;font-weight:400;font-size:32px;line-height:1;font-family:Montserrat;font-variant-ligatures:none;text-align:center;text-anchor:middle;fill:#1d1d1d"
         d="m 441.652,-21.28 q -1.152,0 -1.92,0.704 -0.768,0.704 -0.768,2.016 v 2.208 h 4.672 v 2.272 h -4.672 V 0 h -2.976 v -14.08 h -2.208 v -2.272 h 2.208 v -1.824 q 0,-1.856 0.768,-3.136 0.8,-1.312 2.08,-1.952 1.28,-0.672 2.752,-0.672 1.408,0 2.944,0.768 l -0.704,2.432 q -1.152,-0.544 -2.176,-0.544 z"
         transform="matrix(0.59527182,0,0,0.59527182,193.58151,457.99512)"
         inkscape:connector-curvature="0" />
      <path
         id="path121388"
         style="font-style:normal;font-weight:400;font-size:32px;line-height:1;font-family:Montserrat;font-variant-ligatures:none;text-align:center;text-anchor:middle;fill:#1d1d1d"
         d="m 453.077,-17.024 q 2.528,0 4.48,1.088 1.984,1.088 3.072,3.04 1.12,1.92 1.12,4.416 0,2.496 -1.12,4.448 -1.088,1.952 -3.072,3.04 -1.952,1.088 -4.48,1.088 -2.56,0 -4.544,-1.088 -1.952,-1.088 -3.072,-3.008 -1.088,-1.952 -1.088,-4.48 0,-2.496 1.088,-4.416 1.12,-1.952 3.072,-3.04 1.984,-1.088 4.544,-1.088 z m 0,2.592 q -1.664,0 -2.976,0.768 -1.28,0.768 -2.016,2.144 -0.704,1.344 -0.704,3.072 0,1.76 0.704,3.136 0.736,1.376 2.016,2.144 1.312,0.736 2.976,0.736 1.632,0 2.912,-0.736 1.312,-0.768 2.016,-2.144 0.736,-1.376 0.736,-3.136 0,-1.728 -0.736,-3.072 -0.704,-1.376 -2.016,-2.144 -1.28,-0.768 -2.912,-0.768 z"
         transform="matrix(0.59527182,0,0,0.59527182,196.55787,457.99512)"
         inkscape:connector-curvature="0" />
      <path
         id="path121390"
         style="font-style:normal;font-weight:400;font-size:32px;line-height:1;font-family:Montserrat;font-variant-ligatures:none;text-align:center;text-anchor:middle;fill:#1d1d1d"
         d="m 468.888,-13.28 q 0.832,-1.824 2.368,-2.752 1.536,-0.96 3.648,-0.992 v 2.88 q -2.592,-0.096 -4.192,1.344 -1.6,1.44 -1.824,3.872 V 0 h -2.976 v -16.928 h 2.976 z"
         transform="matrix(0.59527182,0,0,0.59527182,199.53423,457.99512)"
         inkscape:connector-curvature="0" />
      <path
         id="path121392"
         style="font-style:normal;font-weight:400;font-size:32px;line-height:1;font-family:Montserrat;font-variant-ligatures:none;text-align:center;text-anchor:middle;fill:#1d1d1d"
         d="m 496.617,-22.592 q 3.232,0 5.92,1.504 2.72,1.504 4.288,4.128 1.568,2.592 1.568,5.728 0,3.136 -1.568,5.792 -1.568,2.624 -4.288,4.16 -2.688,1.504 -5.92,1.504 -3.232,0 -5.952,-1.504 -2.688,-1.536 -4.256,-4.16 -1.568,-2.656 -1.568,-5.792 0,-3.136 1.568,-5.728 1.568,-2.624 4.256,-4.128 2.688,-1.504 5.952,-1.504 z m 0.032,2.752 q -2.336,0 -4.352,1.152 -1.984,1.152 -3.168,3.136 -1.184,1.952 -1.184,4.32 0,2.368 1.184,4.352 1.184,1.984 3.168,3.168 2.016,1.152 4.352,1.152 2.336,0 4.288,-1.152 1.984,-1.184 3.136,-3.168 1.184,-1.984 1.184,-4.352 0,-2.368 -1.184,-4.32 -1.152,-1.984 -3.136,-3.136 -1.952,-1.152 -4.288,-1.152 z"
         transform="matrix(0.59527182,0,0,0.59527182,202.51059,457.99512)"
         inkscape:connector-curvature="0" />
      <path
         id="path121394"
         style="font-style:normal;font-weight:400;font-size:32px;line-height:1;font-family:Montserrat;font-variant-ligatures:none;text-align:center;text-anchor:middle;fill:#1d1d1d"
         d="m 521.945,-17.024 q 2.368,0 4.224,1.088 1.856,1.088 2.88,3.04 1.024,1.952 1.024,4.48 0,2.496 -1.024,4.448 -0.992,1.92 -2.848,3.008 -1.824,1.056 -4.192,1.056 -2.144,0 -3.776,-0.896 -1.632,-0.896 -2.56,-2.56 v 9.568 h -2.976 v -23.136 h 2.976 v 3.36 q 0.928,-1.664 2.528,-2.56 1.632,-0.896 3.744,-0.896 z m -0.576,14.528 q 1.632,0 2.912,-0.768 1.312,-0.768 2.016,-2.144 0.736,-1.376 0.736,-3.104 0,-1.696 -0.736,-3.072 -0.736,-1.376 -2.016,-2.144 -1.28,-0.768 -2.912,-0.768 -1.632,0 -2.944,0.768 -1.28,0.768 -2.016,2.144 -0.736,1.376 -0.736,3.072 0,1.76 0.736,3.136 0.736,1.344 2.016,2.112 1.312,0.768 2.944,0.768 z"
         transform="matrix(0.59527182,0,0,0.59527182,205.48695,457.99512)"
         inkscape:connector-curvature="0" />
      <path
         id="path121396"
         style="font-style:normal;font-weight:400;font-size:32px;line-height:1;font-family:Montserrat;font-variant-ligatures:none;text-align:center;text-anchor:middle;fill:#1d1d1d"
         d="m 541.0085,-17.024 q 3.936,0 5.952,2.336 2.016,2.304 2.016,6.432 0,0.64 -0.032,0.96 h -13.376 q 0.352,2.272 1.888,3.616 1.568,1.344 3.84,1.344 1.504,0 2.784,-0.544 1.312,-0.544 2.272,-1.536 l 1.632,1.696 q -1.248,1.344 -3.008,2.08 -1.76,0.736 -3.904,0.736 -2.496,0 -4.448,-1.056 -1.92,-1.088 -3.008,-3.04 -1.056,-1.952 -1.056,-4.448 0,-2.496 1.056,-4.416 1.088,-1.952 3.008,-3.04 1.92,-1.12 4.384,-1.12 z m 5.28,7.424 q -0.128,-2.304 -1.536,-3.616 -1.408,-1.344 -3.712,-1.344 -2.24,0 -3.744,1.344 -1.472,1.344 -1.76,3.616 z"
         transform="matrix(0.59527182,0,0,0.59527182,208.46331,457.99512)"
         inkscape:connector-curvature="0" />
      <path
         id="path121398"
         style="font-style:normal;font-weight:400;font-size:32px;line-height:1;font-family:Montserrat;font-variant-ligatures:none;text-align:center;text-anchor:middle;fill:#1d1d1d"
         d="m 562.445,-17.024 q 2.976,0 4.672,1.76 1.696,1.728 1.696,4.8 V 0 h -2.976 v -9.664 q 0,-2.144 -1.216,-3.328 -1.184,-1.216 -3.296,-1.216 -2.272,0.032 -3.712,1.472 -1.408,1.408 -1.6,3.68 V 0 h -2.976 v -16.928 h 2.976 v 3.584 q 1.696,-3.616 6.432,-3.68 z"
         transform="matrix(0.59527182,0,0,0.59527182,211.43967,457.99512)"
         inkscape:connector-curvature="0" />
      <path
         id="path121400"
         style="font-style:normal;font-weight:400;font-size:32px;line-height:1;font-family:Montserrat;font-variant-ligatures:none;text-align:center;text-anchor:middle;fill:#1d1d1d"
         d="m 591.8825,-22.4 q 3.264,0 5.888,1.472 2.656,1.44 4.16,4 1.504,2.56 1.504,5.728 0,3.168 -1.536,5.728 -1.504,2.56 -4.16,4.032 -2.656,1.44 -5.952,1.44 h -9.024 v -22.4 z m 0.064,19.616 q 2.336,0 4.224,-1.088 1.92,-1.088 3.008,-3.008 1.12,-1.92 1.12,-4.288 0,-2.4 -1.12,-4.32 -1.12,-1.92 -3.072,-3.008 -1.92,-1.12 -4.288,-1.12 h -5.984 v 16.832 z"
         transform="matrix(0.59527182,0,0,0.59527182,214.41603,457.99512)"
         inkscape:connector-curvature="0" />
      <path
         id="path121402"
         style="font-style:normal;font-weight:400;font-size:32px;line-height:1;font-family:Montserrat;font-variant-ligatures:none;text-align:center;text-anchor:middle;fill:#1d1d1d"
         d="m 607.537,-16.928 h 2.976 V 0 h -2.976 z m 1.472,-6.752 q 0.8,0 1.312,0.544 0.544,0.544 0.544,1.376 0,0.832 -0.544,1.376 -0.512,0.544 -1.312,0.544 -0.8,0 -1.344,-0.544 -0.512,-0.544 -0.512,-1.376 0,-0.832 0.512,-1.376 0.544,-0.544 1.344,-0.544 z"
         transform="matrix(0.59527182,0,0,0.59527182,217.39238,457.99512)"
         inkscape:connector-curvature="0" />
      <path
         id="path121404"
         style="font-style:normal;font-weight:400;font-size:32px;line-height:1;font-family:Montserrat;font-variant-ligatures:none;text-align:center;text-anchor:middle;fill:#1d1d1d"
         d="m 631.263,-16.928 v 15.2 q 0,2.432 -1.088,4.256 -1.056,1.824 -3.008,2.784 -1.952,0.992 -4.544,0.992 -3.744,0 -6.976,-2.368 l 1.312,-2.176 q 1.248,1.024 2.592,1.504 1.344,0.512 2.944,0.512 2.624,0 4.192,-1.472 1.568,-1.472 1.568,-3.936 V -4 q -0.896,1.536 -2.432,2.4 -1.536,0.832 -3.52,0.832 -2.272,0 -4.032,-1.024 -1.728,-1.056 -2.688,-2.912 -0.96,-1.856 -0.96,-4.256 0,-2.368 0.96,-4.192 0.96,-1.824 2.688,-2.848 1.76,-1.024 4.032,-1.024 2.016,0 3.52,0.832 1.536,0.832 2.432,2.368 v -3.104 z m -8.384,13.76 q 1.568,0 2.784,-0.736 1.216,-0.736 1.888,-2.016 0.704,-1.312 0.704,-2.944 0,-1.664 -0.704,-2.944 -0.672,-1.312 -1.888,-2.048 -1.216,-0.736 -2.784,-0.736 -1.568,0 -2.816,0.736 -1.216,0.736 -1.92,2.048 -0.704,1.28 -0.704,2.944 0.032,2.496 1.536,4.096 1.504,1.6 3.904,1.6 z"
         transform="matrix(0.59527182,0,0,0.59527182,220.36874,457.99512)"
         inkscape:connector-curvature="0" />
      <path
         id="path121406"
         style="font-style:normal;font-weight:400;font-size:32px;line-height:1;font-family:Montserrat;font-variant-ligatures:none;text-align:center;text-anchor:middle;fill:#1d1d1d"
         d="m 636.7245,-16.928 h 2.976 V 0 h -2.976 z m 1.472,-6.752 q 0.8,0 1.312,0.544 0.544,0.544 0.544,1.376 0,0.832 -0.544,1.376 -0.512,0.544 -1.312,0.544 -0.8,0 -1.344,-0.544 -0.512,-0.544 -0.512,-1.376 0,-0.832 0.512,-1.376 0.544,-0.544 1.344,-0.544 z"
         transform="matrix(0.59527182,0,0,0.59527182,223.3451,457.99512)"
         inkscape:connector-curvature="0" />
      <path
         id="path121408"
         style="font-style:normal;font-weight:400;font-size:32px;line-height:1;font-family:Montserrat;font-variant-ligatures:none;text-align:center;text-anchor:middle;fill:#1d1d1d"
         d="m 654.5625,-1.12 q -1.952,1.248 -3.968,1.248 -2.016,0 -3.264,-1.184 -1.248,-1.216 -1.248,-3.648 v -9.376 h -2.4 v -2.272 h 2.4 v -4.544 h 3.008 v 4.544 h 5.184 v 2.272 h -5.184 v 8.832 q 0,1.408 0.512,2.016 0.512,0.608 1.536,0.608 1.216,0 2.624,-0.8 z"
         transform="matrix(0.59527182,0,0,0.59527182,226.32146,457.99512)"
         inkscape:connector-curvature="0" />
      <path
         id="path121410"
         style="font-style:normal;font-weight:400;font-size:32px;line-height:1;font-family:Montserrat;font-variant-ligatures:none;text-align:center;text-anchor:middle;fill:#1d1d1d"
         d="m 668.498,0 v -2.368 q -1.888,2.496 -5.92,2.496 -1.76,0 -3.104,-0.672 -1.312,-0.672 -2.048,-1.856 -0.704,-1.184 -0.704,-2.656 0,-2.272 1.664,-3.584 1.696,-1.344 4.704,-1.376 h 5.376 v -0.8 q 0,-1.792 -1.12,-2.752 -1.088,-0.992 -3.2,-0.992 -2.56,0 -5.216,1.824 l -1.248,-2.048 q 1.824,-1.184 3.36,-1.696 1.568,-0.544 3.712,-0.544 3.168,0 4.896,1.568 1.728,1.536 1.76,4.32 L 671.442,0 Z m -5.312,-2.336 q 2.08,0 3.52,-0.992 1.472,-1.024 1.76,-2.688 v -1.696 h -4.96 q -2.016,0 -3.008,0.608 -0.96,0.608 -0.96,1.92 0,1.312 0.992,2.08 0.992,0.768 2.656,0.768 z"
         transform="matrix(0.59527182,0,0,0.59527182,229.29782,457.99512)"
         inkscape:connector-curvature="0" />
      <path
         id="path121412"
         style="font-style:normal;font-weight:400;font-size:32px;line-height:1;font-family:Montserrat;font-variant-ligatures:none;text-align:center;text-anchor:middle;fill:#1d1d1d"
         d="m 676.8845,-23.744 h 2.976 V 0 h -2.976 z"
         transform="matrix(0.59527182,0,0,0.59527182,232.27418,457.99512)"
         inkscape:connector-curvature="0" />
      <path
         id="path121414"
         style="font-style:normal;font-weight:400;font-size:32px;line-height:1;font-family:Montserrat;font-variant-ligatures:none;text-align:center;text-anchor:middle;fill:#1d1d1d"
         d="m 694.5125,-22.4 h 3.072 V 0 h -3.072 z"
         transform="matrix(0.59527182,0,0,0.59527182,235.25054,457.99512)"
         inkscape:connector-curvature="0" />
      <path
         id="path121416"
         style="font-style:normal;font-weight:400;font-size:32px;line-height:1;font-family:Montserrat;font-variant-ligatures:none;text-align:center;text-anchor:middle;fill:#1d1d1d"
         d="m 713.1325,-17.024 q 2.976,0 4.672,1.76 1.696,1.728 1.696,4.8 V 0 h -2.976 v -9.664 q 0,-2.144 -1.216,-3.328 -1.184,-1.216 -3.296,-1.216 -2.272,0.032 -3.712,1.472 -1.408,1.408 -1.6,3.68 V 0 h -2.976 v -16.928 h 2.976 v 3.584 q 1.696,-3.616 6.432,-3.68 z"
         transform="matrix(0.59527182,0,0,0.59527182,238.2269,457.99512)"
         inkscape:connector-curvature="0" />
      <path
         id="path121418"
         style="font-style:normal;font-weight:400;font-size:32px;line-height:1;font-family:Montserrat;font-variant-ligatures:none;text-align:center;text-anchor:middle;fill:#1d1d1d"
         d="m 734.195,-17.024 q 2.976,0 4.672,1.76 1.696,1.728 1.696,4.8 V 0 h -2.976 v -9.664 q 0,-2.144 -1.216,-3.328 -1.184,-1.216 -3.296,-1.216 -2.272,0.032 -3.712,1.472 -1.408,1.408 -1.6,3.68 V 0 h -2.976 v -16.928 h 2.976 v 3.584 q 1.696,-3.616 6.432,-3.68 z"
         transform="matrix(0.59527182,0,0,0.59527182,241.20326,457.99512)"
         inkscape:connector-curvature="0" />
      <path
         id="path121420"
         style="font-style:normal;font-weight:400;font-size:32px;line-height:1;font-family:Montserrat;font-variant-ligatures:none;text-align:center;text-anchor:middle;fill:#1d1d1d"
         d="m 752.8895,-17.024 q 2.528,0 4.48,1.088 1.984,1.088 3.072,3.04 1.12,1.92 1.12,4.416 0,2.496 -1.12,4.448 -1.088,1.952 -3.072,3.04 -1.952,1.088 -4.48,1.088 -2.56,0 -4.544,-1.088 -1.952,-1.088 -3.072,-3.008 -1.088,-1.952 -1.088,-4.48 0,-2.496 1.088,-4.416 1.12,-1.952 3.072,-3.04 1.984,-1.088 4.544,-1.088 z m 0,2.592 q -1.664,0 -2.976,0.768 -1.28,0.768 -2.016,2.144 -0.704,1.344 -0.704,3.072 0,1.76 0.704,3.136 0.736,1.376 2.016,2.144 1.312,0.736 2.976,0.736 1.632,0 2.912,-0.736 1.312,-0.768 2.016,-2.144 0.736,-1.376 0.736,-3.136 0,-1.728 -0.736,-3.072 -0.704,-1.376 -2.016,-2.144 -1.28,-0.768 -2.912,-0.768 z"
         transform="matrix(0.59527182,0,0,0.59527182,244.17962,457.99512)"
         inkscape:connector-curvature="0" />
      <path
         id="path121422"
         style="font-style:normal;font-weight:400;font-size:32px;line-height:1;font-family:Montserrat;font-variant-ligatures:none;text-align:center;text-anchor:middle;fill:#1d1d1d"
         d="m 762.346,-16.928 h 3.168 l 5.088,13.984 5.056,-13.984 h 3.008 L 772.074,0 h -3.104 z"
         transform="matrix(0.59527182,0,0,0.59527182,247.15598,457.99512)"
         inkscape:connector-curvature="0" />
      <path
         id="path121424"
         style="font-style:normal;font-weight:400;font-size:32px;line-height:1;font-family:Montserrat;font-variant-ligatures:none;text-align:center;text-anchor:middle;fill:#1d1d1d"
         d="m 791.373,0 v -2.368 q -1.888,2.496 -5.92,2.496 -1.76,0 -3.104,-0.672 -1.312,-0.672 -2.048,-1.856 -0.704,-1.184 -0.704,-2.656 0,-2.272 1.664,-3.584 1.696,-1.344 4.704,-1.376 h 5.376 v -0.8 q 0,-1.792 -1.12,-2.752 -1.088,-0.992 -3.2,-0.992 -2.56,0 -5.216,1.824 l -1.248,-2.048 q 1.824,-1.184 3.36,-1.696 1.568,-0.544 3.712,-0.544 3.168,0 4.896,1.568 1.728,1.536 1.76,4.32 L 794.317,0 Z m -5.312,-2.336 q 2.08,0 3.52,-0.992 1.472,-1.024 1.76,-2.688 v -1.696 h -4.96 q -2.016,0 -3.008,0.608 -0.96,0.608 -0.96,1.92 0,1.312 0.992,2.08 0.992,0.768 2.656,0.768 z"
         transform="matrix(0.59527182,0,0,0.59527182,250.13233,457.99512)"
         inkscape:connector-curvature="0" />
      <path
         id="path121426"
         style="font-style:normal;font-weight:400;font-size:32px;line-height:1;font-family:Montserrat;font-variant-ligatures:none;text-align:center;text-anchor:middle;fill:#1d1d1d"
         d="m 808.6875,-1.12 q -1.952,1.248 -3.968,1.248 -2.016,0 -3.264,-1.184 -1.248,-1.216 -1.248,-3.648 v -9.376 h -2.4 v -2.272 h 2.4 v -4.544 h 3.008 v 4.544 h 5.184 v 2.272 h -5.184 v 8.832 q 0,1.408 0.512,2.016 0.512,0.608 1.536,0.608 1.216,0 2.624,-0.8 z"
         transform="matrix(0.59527182,0,0,0.59527182,253.10869,457.99512)"
         inkscape:connector-curvature="0" />
      <path
         id="path121428"
         style="font-style:normal;font-weight:400;font-size:32px;line-height:1;font-family:Montserrat;font-variant-ligatures:none;text-align:center;text-anchor:middle;fill:#1d1d1d"
         d="m 812.287,-16.928 h 2.976 V 0 h -2.976 z m 1.472,-6.752 q 0.8,0 1.312,0.544 0.544,0.544 0.544,1.376 0,0.832 -0.544,1.376 -0.512,0.544 -1.312,0.544 -0.8,0 -1.344,-0.544 -0.512,-0.544 -0.512,-1.376 0,-0.832 0.512,-1.376 0.544,-0.544 1.344,-0.544 z"
         transform="matrix(0.59527182,0,0,0.59527182,256.08505,457.99512)"
         inkscape:connector-curvature="0" />
      <path
         id="path121430"
         style="font-style:normal;font-weight:400;font-size:32px;line-height:1;font-family:Montserrat;font-variant-ligatures:none;text-align:center;text-anchor:middle;fill:#1d1d1d"
         d="m 828.077,-17.024 q 2.528,0 4.48,1.088 1.984,1.088 3.072,3.04 1.12,1.92 1.12,4.416 0,2.496 -1.12,4.448 -1.088,1.952 -3.072,3.04 -1.952,1.088 -4.48,1.088 -2.56,0 -4.544,-1.088 -1.952,-1.088 -3.072,-3.008 -1.088,-1.952 -1.088,-4.48 0,-2.496 1.088,-4.416 1.12,-1.952 3.072,-3.04 1.984,-1.088 4.544,-1.088 z m 0,2.592 q -1.664,0 -2.976,0.768 -1.28,0.768 -2.016,2.144 -0.704,1.344 -0.704,3.072 0,1.76 0.704,3.136 0.736,1.376 2.016,2.144 1.312,0.736 2.976,0.736 1.632,0 2.912,-0.736 1.312,-0.768 2.016,-2.144 0.736,-1.376 0.736,-3.136 0,-1.728 -0.736,-3.072 -0.704,-1.376 -2.016,-2.144 -1.28,-0.768 -2.912,-0.768 z"
         transform="matrix(0.59527182,0,0,0.59527182,259.06141,457.99512)"
         inkscape:connector-curvature="0" />
      <path
         id="path121432"
         style="font-style:normal;font-weight:400;font-size:32px;line-height:1;font-family:Montserrat;font-variant-ligatures:none;text-align:center;text-anchor:middle;fill:#1d1d1d"
         d="m 850.32,-17.024 q 2.976,0 4.672,1.76 1.696,1.728 1.696,4.8 V 0 h -2.976 v -9.664 q 0,-2.144 -1.216,-3.328 -1.184,-1.216 -3.296,-1.216 -2.272,0.032 -3.712,1.472 -1.408,1.408 -1.6,3.68 V 0 h -2.976 v -16.928 h 2.976 v 3.584 q 1.696,-3.616 6.432,-3.68 z"
         transform="matrix(0.59527182,0,0,0.59527182,262.03777,457.99512)"
         inkscape:connector-curvature="0" />
    </g>
  </g>
</svg>
